<svg class="logo" 
xmlns="http://www.w3.org/2000/svg" xmlns:xlink="http://www.w3.org/1999/xlink" zoomAndPan="magnify" preserveAspectRatio="xMidYMid meet" version="1.0" 
viewBox="21.54 153.98 327.65 86.66"><defs><g/>
<clipPath id="c520493209"><rect x="0" width="341" y="0" height="119"/></clipPath>
<clipPath id="m" clipPathUnits="userSpaceOnUse"><use xlink:href="#m-path" transform="translate(0.414766 94.772364)"/></clipPath>
<clipPath id="i1" clipPathUnits="userSpaceOnUse">
<use xlink:href="#i1-stem-path" transform="translate(87.347084 94.772364)"/>
<use xlink:href="#i1-dot-path" transform="translate(87.347084 94.772364)"/>
</clipPath>
<clipPath id="s1" clipPathUnits="userSpaceOnUse"><use xlink:href="#s1-path" transform="translate(109.598737 94.772364)"/></clipPath>
<clipPath id="s2" clipPathUnits="userSpaceOnUse"><use xlink:href="#s2-path" transform="translate(155.044922 94.772364)"/></clipPath>
<clipPath id="o" clipPathUnits="userSpaceOnUse"><use xlink:href="#o-path" transform="translate(200.491107 94.772364)"/></clipPath>
<clipPath id="p" clipPathUnits="userSpaceOnUse"><use xlink:href="#p-path" transform="translate(258.383139 94.772364)"/></clipPath>
<clipPath id="i2" clipPathUnits="userSpaceOnUse">
<use xlink:href="#i2-stem-path" transform="translate(317.123753 94.772364)"/>
<use xlink:href="#i2-dot-path" transform="translate(317.123753 94.772364)"/>
</clipPath>
</defs><g transform="matrix(1, 0, 0, 1, 15, 127)">
<g clip-path="url(#c520493209)">
<g clip-path="url(#m)" fill="#f2778e" fill-opacity="1"><g transform="translate(0.414766, 94.772364)"><g><path id="m-path" class="path mPath" d="M 64.3125 -51.390625 C 70.53125 -51.390625 74.832031 -49.488281 77.21875 -45.6875 C 79.613281 -41.882812 80.8125 -36.617188 80.8125 -29.890625 L 80.8125 -5.75 C 80.8125 -4.113281 80.273438 -2.742188 79.203125 -1.640625 C 78.140625 -0.546875 76.789062 0 75.15625 0 C 73.519531 0 72.164062 -0.546875 71.09375 -1.640625 C 70.03125 -2.742188 69.5 -4.113281 69.5 -5.75 L 69.5 -29.890625 C 69.5 -33.347656 68.820312 -36.066406 67.46875 -38.046875 C 66.113281 -40.023438 63.738281 -41.015625 60.34375 -41.015625 C 56.820312 -41.015625 54.070312 -39.960938 52.09375 -37.859375 C 50.113281 -35.753906 49.125 -33.097656 49.125 -29.890625 L 49.125 -5.75 C 49.125 -4.113281 48.585938 -2.742188 47.515625 -1.640625 C 46.453125 -0.546875 45.101562 0 43.46875 0 C 41.832031 0 40.476562 -0.546875 39.40625 -1.640625 C 38.34375 -2.742188 37.8125 -4.113281 37.8125 -5.75 L 37.8125 -29.890625 C 37.8125 -33.347656 37.132812 -36.066406 35.78125 -38.046875 C 34.4375 -40.023438 32.066406 -41.015625 28.671875 -41.015625 C 25.148438 -41.015625 22.394531 -39.960938 20.40625 -37.859375 C 18.425781 -35.753906 17.4375 -33.097656 17.4375 -29.890625 L 17.4375 -5.75 C 17.4375 -4.113281 16.898438 -2.742188 15.828125 -1.640625 C 14.765625 -0.546875 13.414062 0 11.78125 0 C 10.144531 0 8.789062 -0.546875 7.71875 -1.640625 C 6.65625 -2.742188 6.125 -4.113281 6.125 -5.75 L 6.125 -44.703125 C 6.125 -46.335938 6.65625 -47.703125 7.71875 -48.796875 C 8.789062 -49.898438 10.144531 -50.453125 11.78125 -50.453125 C 13.414062 -50.453125 14.765625 -49.898438 15.828125 -48.796875 C 16.898438 -47.703125 17.4375 -46.335938 17.4375 -44.703125 L 17.4375 -43.1875 C 19.132812 -45.445312 21.285156 -47.378906 23.890625 -48.984375 C 26.503906 -50.585938 29.414062 -51.390625 32.625 -51.390625 C 40.550781 -51.390625 45.613281 -47.929688 47.8125 -41.015625 C 49.257812 -43.660156 51.441406 -46.050781 54.359375 -48.1875 C 57.285156 -50.320312 60.601562 -51.390625 64.3125 -51.390625 Z M 64.3125 -51.390625 "/></g></g></g>
<g clip-path="url(#i1)" fill="#f2778e" fill-opacity="1"><g transform="translate(87.347084, 94.772364)"><g><path id="i1-stem-path" class="path iPath i1Path" d="M 16.78125 -5.75 C 16.78125 -4.113281 16.242188 -2.742188 15.171875 -1.640625 C 14.109375 -0.546875 12.757812 0 11.125 0 C 9.488281 0 8.132812 -0.546875 7.0625 -1.640625 C 6 -2.742188 5.46875 -4.113281 5.46875 -5.75 L 5.46875 -44.703125 C 5.46875 -46.335938 6 -47.703125 7.0625 -48.796875 C 8.132812 -49.898438 9.488281 -50.453125 11.125 -50.453125 C 12.757812 -50.453125 14.109375 -49.898438 15.171875 -48.796875 C 16.242188 -47.703125 16.78125 -46.335938 16.78125 -44.703125 Z"/><g id="i1-dot-group" class="dot-group"><path id="i1-dot-path" class="dot" d="M 11.03125 -56.578125 C 8.894531 -56.578125 7.382812 -56.921875 6.5 -57.609375 C 5.625 -58.304688 5.1875 -59.535156 5.1875 -61.296875 L 5.1875 -63.078125 C 5.1875 -64.835938 5.65625 -66.0625 6.59375 -66.75 C 7.539062 -67.445312 9.050781 -67.796875 11.125 -67.796875 C 13.320312 -67.796875 14.859375 -67.445312 15.734375 -66.75 C 16.617188 -66.0625 17.0625 -64.835938 17.0625 -63.078125 L 17.0625 -61.296875 C 17.0625 -59.472656 16.601562 -58.226562 15.6875 -57.5625 C 14.78125 -56.90625 13.226562 -56.578125 11.03125 -56.578125 Z"/></g></g></g></g>
<g clip-path="url(#s1)" fill="#f2778e" fill-opacity="1"><g transform="translate(109.598737, 94.772364)"><g><path id="s1-path" class="path s1Path" d="M 3.203125 -7.828125 C 2.640625 -8.578125 2.359375 -9.519531 2.359375 -10.65625 C 2.359375 -12.289062 3.175781 -13.671875 4.8125 -14.796875 C 5.6875 -15.367188 6.597656 -15.65625 7.546875 -15.65625 C 8.867188 -15.65625 10.125 -15.054688 11.3125 -13.859375 C 13.195312 -11.910156 15.160156 -10.460938 17.203125 -9.515625 C 19.253906 -8.578125 21.722656 -8.109375 24.609375 -8.109375 C 29.515625 -8.296875 31.96875 -10.148438 31.96875 -13.671875 C 31.96875 -15.492188 31.132812 -16.875 29.46875 -17.8125 C 27.800781 -18.757812 25.207031 -19.707031 21.6875 -20.65625 C 18.039062 -21.65625 15.066406 -22.65625 12.765625 -23.65625 C 10.472656 -24.664062 8.492188 -26.191406 6.828125 -28.234375 C 5.171875 -30.285156 4.34375 -33.039062 4.34375 -36.5 C 4.34375 -39.507812 5.207031 -42.128906 6.9375 -44.359375 C 8.664062 -46.597656 10.925781 -48.328125 13.71875 -49.546875 C 16.519531 -50.773438 19.488281 -51.390625 22.625 -51.390625 C 25.832031 -51.390625 29.039062 -50.789062 32.25 -49.59375 C 35.457031 -48.40625 37.972656 -46.644531 39.796875 -44.3125 C 40.609375 -43.3125 41.015625 -42.179688 41.015625 -40.921875 C 41.015625 -39.472656 40.421875 -38.28125 39.234375 -37.34375 C 38.347656 -36.644531 37.335938 -36.296875 36.203125 -36.296875 C 34.828125 -36.296875 33.695312 -36.738281 32.8125 -37.625 C 31.6875 -39.007812 30.226562 -40.109375 28.4375 -40.921875 C 26.644531 -41.742188 24.613281 -42.15625 22.34375 -42.15625 C 17.570312 -42.15625 15.1875 -40.425781 15.1875 -36.96875 C 15.1875 -35.582031 15.625 -34.460938 16.5 -33.609375 C 17.382812 -32.765625 18.5 -32.101562 19.84375 -31.625 C 21.195312 -31.15625 23.097656 -30.578125 25.546875 -29.890625 C 28.941406 -28.953125 31.769531 -27.976562 34.03125 -26.96875 C 36.300781 -25.957031 38.222656 -24.414062 39.796875 -22.34375 C 41.367188 -20.269531 42.15625 -17.535156 42.15625 -14.140625 C 42.15625 -11.066406 41.242188 -8.378906 39.421875 -6.078125 C 37.597656 -3.785156 35.253906 -2.039062 32.390625 -0.84375 C 29.523438 0.34375 26.585938 0.9375 23.578125 0.9375 C 19.421875 0.9375 15.550781 0.25 11.96875 -1.125 C 8.382812 -2.507812 5.460938 -4.742188 3.203125 -7.828125 Z M 3.203125 -7.828125 "/></g></g></g>
<g clip-path="url(#s2)" fill="#f2778e" fill-opacity="1"><g transform="translate(155.044922, 94.772364)"><g><path id="s2-path" class="path s2Path" d="M 3.203125 -7.828125 C 2.640625 -8.578125 2.359375 -9.519531 2.359375 -10.65625 C 2.359375 -12.289062 3.175781 -13.671875 4.8125 -14.796875 C 5.6875 -15.367188 6.597656 -15.65625 7.546875 -15.65625 C 8.867188 -15.65625 10.125 -15.054688 11.3125 -13.859375 C 13.195312 -11.910156 15.160156 -10.460938 17.203125 -9.515625 C 19.253906 -8.578125 21.722656 -8.109375 24.609375 -8.109375 C 29.515625 -8.296875 31.96875 -10.148438 31.96875 -13.671875 C 31.96875 -15.492188 31.132812 -16.875 29.46875 -17.8125 C 27.800781 -18.757812 25.207031 -19.707031 21.6875 -20.65625 C 18.039062 -21.65625 15.066406 -22.65625 12.765625 -23.65625 C 10.472656 -24.664062 8.492188 -26.191406 6.828125 -28.234375 C 5.171875 -30.285156 4.34375 -33.039062 4.34375 -36.5 C 4.34375 -39.507812 5.207031 -42.128906 6.9375 -44.359375 C 8.664062 -46.597656 10.925781 -48.328125 13.71875 -49.546875 C 16.519531 -50.773438 19.488281 -51.390625 22.625 -51.390625 C 25.832031 -51.390625 29.039062 -50.789062 32.25 -49.59375 C 35.457031 -48.40625 37.972656 -46.644531 39.796875 -44.3125 C 40.609375 -43.3125 41.015625 -42.179688 41.015625 -40.921875 C 41.015625 -39.472656 40.421875 -38.28125 39.234375 -37.34375 C 38.347656 -36.644531 37.335938 -36.296875 36.203125 -36.296875 C 34.828125 -36.296875 33.695312 -36.738281 32.8125 -37.625 C 31.6875 -39.007812 30.226562 -40.109375 28.4375 -40.921875 C 26.644531 -41.742188 24.613281 -42.15625 22.34375 -42.15625 C 17.570312 -42.15625 15.1875 -40.425781 15.1875 -36.96875 C 15.1875 -35.582031 15.625 -34.460938 16.5 -33.609375 C 17.382812 -32.765625 18.5 -32.101562 19.84375 -31.625 C 21.195312 -31.15625 23.097656 -30.578125 25.546875 -29.890625 C 28.941406 -28.953125 31.769531 -27.976562 34.03125 -26.96875 C 36.300781 -25.957031 38.222656 -24.414062 39.796875 -22.34375 C 41.367188 -20.269531 42.15625 -17.535156 42.15625 -14.140625 C 42.15625 -11.066406 41.242188 -8.378906 39.421875 -6.078125 C 37.597656 -3.785156 35.253906 -2.039062 32.390625 -0.84375 C 29.523438 0.34375 26.585938 0.9375 23.578125 0.9375 C 19.421875 0.9375 15.550781 0.25 11.96875 -1.125 C 8.382812 -2.507812 5.460938 -4.742188 3.203125 -7.828125 Z M 3.203125 -7.828125 "/></g></g></g>
<g clip-path="url(#o)" fill="#f2778e" fill-opacity="1"><g transform="translate(200.491107, 94.772364)"><g><path id="o-path" class="path oPath" d="M 54.59375 -25.171875 C 54.59375 -20.148438 53.460938 -15.640625 51.203125 -11.640625 C 48.941406 -7.648438 45.84375 -4.554688 41.90625 -2.359375 C 37.976562 -0.160156 33.660156 0.9375 28.953125 0.9375 C 24.171875 0.9375 19.832031 -0.160156 15.9375 -2.359375 C 12.039062 -4.554688 8.957031 -7.648438 6.6875 -11.640625 C 4.425781 -15.640625 3.296875 -20.148438 3.296875 -25.171875 C 3.296875 -30.203125 4.425781 -34.710938 6.6875 -38.703125 C 8.957031 -42.703125 12.039062 -45.816406 15.9375 -48.046875 C 19.832031 -50.273438 24.171875 -51.390625 28.953125 -51.390625 C 33.660156 -51.390625 37.976562 -50.273438 41.90625 -48.046875 C 45.84375 -45.816406 48.941406 -42.703125 51.203125 -38.703125 C 53.460938 -34.710938 54.59375 -30.203125 54.59375 -25.171875 Z M 43.28125 -25.171875 C 43.28125 -28.253906 42.632812 -31.003906 41.34375 -33.421875 C 40.0625 -35.847656 38.332031 -37.71875 36.15625 -39.03125 C 33.988281 -40.351562 31.585938 -41.015625 28.953125 -41.015625 C 26.304688 -41.015625 23.898438 -40.351562 21.734375 -39.03125 C 19.566406 -37.71875 17.835938 -35.847656 16.546875 -33.421875 C 15.253906 -31.003906 14.609375 -28.253906 14.609375 -25.171875 C 14.609375 -22.097656 15.253906 -19.363281 16.546875 -16.96875 C 17.835938 -14.582031 19.566406 -12.726562 21.734375 -11.40625 C 23.898438 -10.09375 26.304688 -9.4375 28.953125 -9.4375 C 31.585938 -9.4375 33.988281 -10.09375 36.15625 -11.40625 C 38.332031 -12.726562 40.0625 -14.582031 41.34375 -16.96875 C 42.632812 -19.363281 43.28125 -22.097656 43.28125 -25.171875 Z M 43.28125 -25.171875 "/></g></g></g>
<g clip-path="url(#p)" fill="#f2778e" fill-opacity="1"><g transform="translate(258.383139, 94.772364)"><g><path id="p-path" class="path pPath" d="M 32.25 -51.390625 C 36.582031 -51.390625 40.507812 -50.273438 44.03125 -48.046875 C 47.550781 -45.816406 50.332031 -42.71875 52.375 -38.75 C 54.425781 -34.789062 55.453125 -30.296875 55.453125 -25.265625 C 55.453125 -20.242188 54.441406 -15.734375 52.421875 -11.734375 C 50.410156 -7.742188 47.660156 -4.632812 44.171875 -2.40625 C 40.679688 -0.175781 36.832031 0.9375 32.625 0.9375 C 29.601562 0.9375 26.753906 0.328125 24.078125 -0.890625 C 21.410156 -2.117188 19.195312 -3.613281 17.4375 -5.375 L 17.4375 13.109375 C 17.4375 14.742188 16.898438 16.109375 15.828125 17.203125 C 14.765625 18.304688 13.414062 18.859375 11.78125 18.859375 C 10.144531 18.859375 8.789062 18.320312 7.71875 17.25 C 6.65625 16.1875 6.125 14.804688 6.125 13.109375 L 6.125 -44.703125 C 6.125 -46.335938 6.65625 -47.703125 7.71875 -48.796875 C 8.789062 -49.898438 10.144531 -50.453125 11.78125 -50.453125 C 13.414062 -50.453125 14.765625 -49.898438 15.828125 -48.796875 C 16.898438 -47.703125 17.4375 -46.335938 17.4375 -44.703125 L 17.4375 -44.3125 C 18.945312 -46.207031 21.050781 -47.859375 23.75 -49.265625 C 26.457031 -50.679688 29.289062 -51.390625 32.25 -51.390625 Z M 30.828125 -9.4375 C 34.859375 -9.4375 38.160156 -10.941406 40.734375 -13.953125 C 43.316406 -16.972656 44.609375 -20.742188 44.609375 -25.265625 C 44.609375 -29.796875 43.332031 -33.550781 40.78125 -36.53125 C 38.238281 -39.519531 34.921875 -41.015625 30.828125 -41.015625 C 26.742188 -41.015625 23.410156 -39.519531 20.828125 -36.53125 C 18.253906 -33.550781 16.96875 -29.796875 16.96875 -25.265625 C 16.96875 -20.742188 18.253906 -16.972656 20.828125 -13.953125 C 23.410156 -10.941406 26.742188 -9.4375 30.828125 -9.4375 Z M 30.828125 -9.4375 "/></g></g></g>
<g clip-path="url(#i2)" fill="#f2778e" fill-opacity="1"><g transform="translate(317.123753, 94.772364)"><g><path id="i2-stem-path" class="path iPath i2Path" d="M 16.78125 -5.75 C 16.78125 -4.113281 16.242188 -2.742188 15.171875 -1.640625 C 14.109375 -0.546875 12.757812 0 11.125 0 C 9.488281 0 8.132812 -0.546875 7.0625 -1.640625 C 6 -2.742188 5.46875 -4.113281 5.46875 -5.75 L 5.46875 -44.703125 C 5.46875 -46.335938 6 -47.703125 7.0625 -48.796875 C 8.132812 -49.898438 9.488281 -50.453125 11.125 -50.453125 C 12.757812 -50.453125 14.109375 -49.898438 15.171875 -48.796875 C 16.242188 -47.703125 16.78125 -46.335938 16.78125 -44.703125 Z"/><g id="i2-dot-group" class="dot-group"><path id="i2-dot-path" class="dot" d="M 11.03125 -56.578125 C 8.894531 -56.578125 7.382812 -56.921875 6.5 -57.609375 C 5.625 -58.304688 5.1875 -59.535156 5.1875 -61.296875 L 5.1875 -63.078125 C 5.1875 -64.835938 5.65625 -66.0625 6.59375 -66.75 C 7.539062 -67.445312 9.050781 -67.796875 11.125 -67.796875 C 13.320312 -67.796875 14.859375 -67.445312 15.734375 -66.75 C 16.617188 -66.0625 17.0625 -64.835938 17.0625 -63.078125 L 17.0625 -61.296875 C 17.0625 -59.472656 16.601562 -58.226562 15.6875 -57.5625 C 14.78125 -56.90625 13.226562 -56.578125 11.03125 -56.578125 Z"/></g></g></g></g></g></g></svg>
