<svg xmlns="http://www.w3.org/2000/svg" xmlns:xlink="http://www.w3.org/1999/xlink" zoomAndPan="magnify" preserveAspectRatio="xMidYMid meet" version="1.0" viewBox="53.55 151.99 261.75 70.72"><defs><g/><clipPath id="632572a4b8"><rect x="0" width="272" y="0" height="119"/></clipPath></defs><g transform="matrix(1, 0, 0, 1, 49, 127)"><g clip-path="url(#632572a4b8)">
<g fill="#f291a3" fill-opacity="1"><g transform="translate(1.250821, 94.772364)"><g><path d="M 46.953125 -51.390625 C 48.585938 -51.390625 49.941406 -50.851562 51.015625 -49.78125 C 52.085938 -48.71875 52.625 -47.335938 52.625 -45.640625 L 52.625 -5.75 C 52.625 -4.113281 52.085938 -2.742188 51.015625 -1.640625 C 49.941406 -0.546875 48.585938 0 46.953125 0 C 45.328125 0 43.992188 -0.53125 42.953125 -1.59375 C 41.910156 -2.664062 41.359375 -4.019531 41.296875 -5.65625 C 39.722656 -3.832031 37.597656 -2.273438 34.921875 -0.984375 C 32.253906 0.296875 29.445312 0.9375 26.5 0.9375 C 22.15625 0.9375 18.222656 -0.175781 14.703125 -2.40625 C 11.191406 -4.632812 8.410156 -7.726562 6.359375 -11.6875 C 4.316406 -15.65625 3.296875 -20.148438 3.296875 -25.171875 C 3.296875 -30.203125 4.300781 -34.710938 6.3125 -38.703125 C 8.320312 -42.703125 11.070312 -45.816406 14.5625 -48.046875 C 18.050781 -50.273438 21.90625 -51.390625 26.125 -51.390625 C 29.132812 -51.390625 31.957031 -50.835938 34.59375 -49.734375 C 37.238281 -48.640625 39.472656 -47.242188 41.296875 -45.546875 L 41.296875 -45.640625 C 41.296875 -47.273438 41.832031 -48.640625 42.90625 -49.734375 C 43.976562 -50.835938 45.328125 -51.390625 46.953125 -51.390625 Z M 27.90625 -9.4375 C 32 -9.4375 35.332031 -10.925781 37.90625 -13.90625 C 40.488281 -16.894531 41.78125 -20.648438 41.78125 -25.171875 C 41.78125 -29.703125 40.488281 -33.472656 37.90625 -36.484375 C 35.332031 -39.503906 32 -41.015625 27.90625 -41.015625 C 23.882812 -41.015625 20.582031 -39.503906 18 -36.484375 C 15.425781 -33.472656 14.140625 -29.703125 14.140625 -25.171875 C 14.140625 -20.648438 15.410156 -16.894531 17.953125 -13.90625 C 20.503906 -10.925781 23.820312 -9.4375 27.90625 -9.4375 Z M 27.90625 -9.4375 "/></g></g></g>
<g fill="#f291a3" fill-opacity="1"><g transform="translate(59.991435, 94.772364)"><g><path d="M 32.25 -51.390625 C 36.582031 -51.390625 40.507812 -50.273438 44.03125 -48.046875 C 47.550781 -45.816406 50.332031 -42.71875 52.375 -38.75 C 54.425781 -34.789062 55.453125 -30.296875 55.453125 -25.265625 C 55.453125 -20.242188 54.441406 -15.734375 52.421875 -11.734375 C 50.410156 -7.742188 47.660156 -4.632812 44.171875 -2.40625 C 40.679688 -0.175781 36.832031 0.9375 32.625 0.9375 C 29.601562 0.9375 26.753906 0.328125 24.078125 -0.890625 C 21.410156 -2.117188 19.195312 -3.613281 17.4375 -5.375 L 17.4375 -4.8125 C 17.4375 -3.175781 16.898438 -1.804688 15.828125 -0.703125 C 14.765625 0.390625 13.414062 0.9375 11.78125 0.9375 C 10.144531 0.9375 8.789062 0.40625 7.71875 -0.65625 C 6.65625 -1.726562 6.125 -3.113281 6.125 -4.8125 L 6.125 -64.03125 C 6.125 -65.664062 6.65625 -67.03125 7.71875 -68.125 C 8.789062 -69.226562 10.144531 -69.78125 11.78125 -69.78125 C 13.414062 -69.78125 14.765625 -69.226562 15.828125 -68.125 C 16.898438 -67.03125 17.4375 -65.664062 17.4375 -64.03125 L 17.4375 -44.3125 C 18.945312 -46.207031 21.050781 -47.859375 23.75 -49.265625 C 26.457031 -50.679688 29.289062 -51.390625 32.25 -51.390625 Z M 30.828125 -9.4375 C 34.859375 -9.4375 38.160156 -10.941406 40.734375 -13.953125 C 43.316406 -16.972656 44.609375 -20.742188 44.609375 -25.265625 C 44.609375 -29.796875 43.332031 -33.550781 40.78125 -36.53125 C 38.238281 -39.519531 34.921875 -41.015625 30.828125 -41.015625 C 26.742188 -41.015625 23.410156 -39.519531 20.828125 -36.53125 C 18.253906 -33.550781 16.96875 -29.796875 16.96875 -25.265625 C 16.96875 -20.742188 18.253906 -16.972656 20.828125 -13.953125 C 23.410156 -10.941406 26.742188 -9.4375 30.828125 -9.4375 Z M 30.828125 -9.4375 "/></g></g></g>
<g fill="#f291a3" fill-opacity="1"><g transform="translate(118.732048, 94.772364)"><g><path d="M 54.59375 -25.171875 C 54.59375 -20.148438 53.460938 -15.640625 51.203125 -11.640625 C 48.941406 -7.648438 45.84375 -4.554688 41.90625 -2.359375 C 37.976562 -0.160156 33.660156 0.9375 28.953125 0.9375 C 24.171875 0.9375 19.832031 -0.160156 15.9375 -2.359375 C 12.039062 -4.554688 8.957031 -7.648438 6.6875 -11.640625 C 4.425781 -15.640625 3.296875 -20.148438 3.296875 -25.171875 C 3.296875 -30.203125 4.425781 -34.710938 6.6875 -38.703125 C 8.957031 -42.703125 12.039062 -45.816406 15.9375 -48.046875 C 19.832031 -50.273438 24.171875 -51.390625 28.953125 -51.390625 C 33.660156 -51.390625 37.976562 -50.273438 41.90625 -48.046875 C 45.84375 -45.816406 48.941406 -42.703125 51.203125 -38.703125 C 53.460938 -34.710938 54.59375 -30.203125 54.59375 -25.171875 Z M 43.28125 -25.171875 C 43.28125 -28.253906 42.632812 -31.003906 41.34375 -33.421875 C 40.0625 -35.847656 38.332031 -37.71875 36.15625 -39.03125 C 33.988281 -40.351562 31.585938 -41.015625 28.953125 -41.015625 C 26.304688 -41.015625 23.898438 -40.351562 21.734375 -39.03125 C 19.566406 -37.71875 17.835938 -35.847656 16.546875 -33.421875 C 15.253906 -31.003906 14.609375 -28.253906 14.609375 -25.171875 C 14.609375 -22.097656 15.253906 -19.363281 16.546875 -16.96875 C 17.835938 -14.582031 19.566406 -12.726562 21.734375 -11.40625 C 23.898438 -10.09375 26.304688 -9.4375 28.953125 -9.4375 C 31.585938 -9.4375 33.988281 -10.09375 36.15625 -11.40625 C 38.332031 -12.726562 40.0625 -14.582031 41.34375 -16.96875 C 42.632812 -19.363281 43.28125 -22.097656 43.28125 -25.171875 Z M 43.28125 -25.171875 "/></g></g></g>
<g fill="#f291a3" fill-opacity="1"><g transform="translate(176.624081, 94.772364)"><g><path d="M 43.5625 -50.453125 C 45.195312 -50.453125 46.546875 -49.898438 47.609375 -48.796875 C 48.679688 -47.703125 49.21875 -46.335938 49.21875 -44.703125 L 49.21875 -20.75 C 49.21875 -13.957031 47.347656 -8.644531 43.609375 -4.8125 C 39.867188 -0.976562 34.539062 0.9375 27.625 0.9375 C 20.707031 0.9375 15.394531 -0.976562 11.6875 -4.8125 C 7.976562 -8.644531 6.125 -13.957031 6.125 -20.75 L 6.125 -44.703125 C 6.125 -46.335938 6.65625 -47.703125 7.71875 -48.796875 C 8.789062 -49.898438 10.144531 -50.453125 11.78125 -50.453125 C 13.414062 -50.453125 14.765625 -49.898438 15.828125 -48.796875 C 16.898438 -47.703125 17.4375 -46.335938 17.4375 -44.703125 L 17.4375 -20.75 C 17.4375 -16.914062 18.285156 -14.070312 19.984375 -12.21875 C 21.679688 -10.363281 24.226562 -9.4375 27.625 -9.4375 C 31.082031 -9.4375 33.660156 -10.363281 35.359375 -12.21875 C 37.054688 -14.070312 37.90625 -16.914062 37.90625 -20.75 L 37.90625 -44.703125 C 37.90625 -46.335938 38.4375 -47.703125 39.5 -48.796875 C 40.570312 -49.898438 41.925781 -50.453125 43.5625 -50.453125 Z M 43.5625 -50.453125 "/></g></g></g>
<g fill="#f291a3" fill-opacity="1"><g transform="translate(231.970369, 94.772364)"><g><path d="M 30.453125 -10.65625 C 31.335938 -10.65625 32.140625 -10.226562 32.859375 -9.375 C 33.585938 -8.53125 33.953125 -7.414062 33.953125 -6.03125 C 33.953125 -4.332031 33.023438 -2.898438 31.171875 -1.734375 C 29.316406 -0.578125 27.222656 0 24.890625 0 C 20.992188 0 17.707031 -0.832031 15.03125 -2.5 C 12.363281 -4.164062 11.03125 -7.703125 11.03125 -13.109375 L 11.03125 -39.140625 L 6.6875 -39.140625 C 5.1875 -39.140625 3.929688 -39.640625 2.921875 -40.640625 C 1.921875 -41.648438 1.421875 -42.90625 1.421875 -44.40625 C 1.421875 -45.851562 1.921875 -47.0625 2.921875 -48.03125 C 3.929688 -49.007812 5.1875 -49.5 6.6875 -49.5 L 11.03125 -49.5 L 11.03125 -55.546875 C 11.03125 -57.179688 11.578125 -58.546875 12.671875 -59.640625 C 13.773438 -60.742188 15.144531 -61.296875 16.78125 -61.296875 C 18.351562 -61.296875 19.671875 -60.742188 20.734375 -59.640625 C 21.804688 -58.546875 22.34375 -57.179688 22.34375 -55.546875 L 22.34375 -49.5 L 29.046875 -49.5 C 30.554688 -49.5 31.8125 -48.992188 32.8125 -47.984375 C 33.820312 -46.984375 34.328125 -45.726562 34.328125 -44.21875 C 34.328125 -42.78125 33.820312 -41.570312 32.8125 -40.59375 C 31.8125 -39.625 30.554688 -39.140625 29.046875 -39.140625 L 22.34375 -39.140625 L 22.34375 -13.578125 C 22.34375 -12.253906 22.6875 -11.296875 23.375 -10.703125 C 24.070312 -10.109375 25.019531 -9.8125 26.21875 -9.8125 C 26.71875 -9.8125 27.410156 -9.9375 28.296875 -10.1875 C 29.046875 -10.5 29.765625 -10.65625 30.453125 -10.65625 Z M 30.453125 -10.65625 "/></g></g></g></g></g></svg>