<svg xmlns="http://www.w3.org/2000/svg" xmlns:xlink="http://www.w3.org/1999/xlink" zoomAndPan="magnify" preserveAspectRatio="xMidYMid meet" version="1.0" viewBox="90.12 151.99 189.53 88.64"><defs><g/><clipPath id="0d81c75bfc"><rect x="0" width="203" y="0" height="119"/></clipPath></defs><g transform="matrix(1, 0, 0, 1, 83, 127)"><g clip-path="url(#0d81c75bfc)">
<g fill="#f291a3" fill-opacity="1"><g transform="translate(0.997081, 94.77235)"><g><path d="M 32.25 -51.390625 C 36.582031 -51.390625 40.507812 -50.273438 44.03125 -48.046875 C 47.550781 -45.816406 50.332031 -42.71875 52.375 -38.75 C 54.425781 -34.789062 55.453125 -30.296875 55.453125 -25.265625 C 55.453125 -20.242188 54.441406 -15.734375 52.421875 -11.734375 C 50.410156 -7.742188 47.660156 -4.632812 44.171875 -2.40625 C 40.679688 -0.175781 36.832031 0.9375 32.625 0.9375 C 29.601562 0.9375 26.753906 0.328125 24.078125 -0.890625 C 21.410156 -2.117188 19.195312 -3.613281 17.4375 -5.375 L 17.4375 -4.8125 C 17.4375 -3.175781 16.898438 -1.804688 15.828125 -0.703125 C 14.765625 0.390625 13.414062 0.9375 11.78125 0.9375 C 10.144531 0.9375 8.789062 0.40625 7.71875 -0.65625 C 6.65625 -1.726562 6.125 -3.113281 6.125 -4.8125 L 6.125 -64.03125 C 6.125 -65.664062 6.65625 -67.03125 7.71875 -68.125 C 8.789062 -69.226562 10.144531 -69.78125 11.78125 -69.78125 C 13.414062 -69.78125 14.765625 -69.226562 15.828125 -68.125 C 16.898438 -67.03125 17.4375 -65.664062 17.4375 -64.03125 L 17.4375 -44.3125 C 18.945312 -46.207031 21.050781 -47.859375 23.75 -49.265625 C 26.457031 -50.679688 29.289062 -51.390625 32.25 -51.390625 Z M 30.828125 -9.4375 C 34.859375 -9.4375 38.160156 -10.941406 40.734375 -13.953125 C 43.316406 -16.972656 44.609375 -20.742188 44.609375 -25.265625 C 44.609375 -29.796875 43.332031 -33.550781 40.78125 -36.53125 C 38.238281 -39.519531 34.921875 -41.015625 30.828125 -41.015625 C 26.742188 -41.015625 23.410156 -39.519531 20.828125 -36.53125 C 18.253906 -33.550781 16.96875 -29.796875 16.96875 -25.265625 C 16.96875 -20.742188 18.253906 -16.972656 20.828125 -13.953125 C 23.410156 -10.941406 26.742188 -9.4375 30.828125 -9.4375 Z M 30.828125 -9.4375 "/></g></g></g>
<g fill="#f291a3" fill-opacity="1"><g transform="translate(59.737694, 94.77235)"><g><path d="M 18.390625 -5.75 C 18.390625 -4.113281 17.835938 -2.742188 16.734375 -1.640625 C 15.640625 -0.546875 14.273438 0 12.640625 0 C 11.066406 0 9.742188 -0.546875 8.671875 -1.640625 C 7.609375 -2.742188 7.078125 -4.113281 7.078125 -5.75 L 7.078125 -64.03125 C 7.078125 -65.664062 7.625 -67.03125 8.71875 -68.125 C 9.820312 -69.226562 11.191406 -69.78125 12.828125 -69.78125 C 14.398438 -69.78125 15.71875 -69.226562 16.78125 -68.125 C 17.851562 -67.03125 18.390625 -65.664062 18.390625 -64.03125 Z M 18.390625 -5.75 "/></g></g></g>
<g fill="#f291a3" fill-opacity="1"><g transform="translate(85.195097, 94.77235)"><g><path d="M 54.59375 -25.171875 C 54.59375 -20.148438 53.460938 -15.640625 51.203125 -11.640625 C 48.941406 -7.648438 45.84375 -4.554688 41.90625 -2.359375 C 37.976562 -0.160156 33.660156 0.9375 28.953125 0.9375 C 24.171875 0.9375 19.832031 -0.160156 15.9375 -2.359375 C 12.039062 -4.554688 8.957031 -7.648438 6.6875 -11.640625 C 4.425781 -15.640625 3.296875 -20.148438 3.296875 -25.171875 C 3.296875 -30.203125 4.425781 -34.710938 6.6875 -38.703125 C 8.957031 -42.703125 12.039062 -45.816406 15.9375 -48.046875 C 19.832031 -50.273438 24.171875 -51.390625 28.953125 -51.390625 C 33.660156 -51.390625 37.976562 -50.273438 41.90625 -48.046875 C 45.84375 -45.816406 48.941406 -42.703125 51.203125 -38.703125 C 53.460938 -34.710938 54.59375 -30.203125 54.59375 -25.171875 Z M 43.28125 -25.171875 C 43.28125 -28.253906 42.632812 -31.003906 41.34375 -33.421875 C 40.0625 -35.847656 38.332031 -37.71875 36.15625 -39.03125 C 33.988281 -40.351562 31.585938 -41.015625 28.953125 -41.015625 C 26.304688 -41.015625 23.898438 -40.351562 21.734375 -39.03125 C 19.566406 -37.71875 17.835938 -35.847656 16.546875 -33.421875 C 15.253906 -31.003906 14.609375 -28.253906 14.609375 -25.171875 C 14.609375 -22.097656 15.253906 -19.363281 16.546875 -16.96875 C 17.835938 -14.582031 19.566406 -12.726562 21.734375 -11.40625 C 23.898438 -10.09375 26.304688 -9.4375 28.953125 -9.4375 C 31.585938 -9.4375 33.988281 -10.09375 36.15625 -11.40625 C 38.332031 -12.726562 40.0625 -14.582031 41.34375 -16.96875 C 42.632812 -19.363281 43.28125 -22.097656 43.28125 -25.171875 Z M 43.28125 -25.171875 "/></g></g></g>
<g fill="#f291a3" fill-opacity="1"><g transform="translate(143.087129, 94.77235)"><g><path d="M 47.90625 -51.390625 C 49.539062 -51.390625 50.890625 -50.851562 51.953125 -49.78125 C 53.023438 -48.71875 53.5625 -47.335938 53.5625 -45.640625 L 53.5625 -3.671875 C 53.5625 3.992188 51.1875 9.664062 46.4375 13.34375 C 41.695312 17.019531 35.679688 18.859375 28.390625 18.859375 C 26.492188 18.859375 23.894531 18.539062 20.59375 17.90625 C 17.300781 17.28125 14.960938 16.65625 13.578125 16.03125 C 10.492188 14.707031 8.953125 12.882812 8.953125 10.5625 C 8.953125 10.125 9.046875 9.617188 9.234375 9.046875 C 9.617188 7.671875 10.265625 6.617188 11.171875 5.890625 C 12.085938 5.171875 13.078125 4.8125 14.140625 4.8125 C 14.773438 4.8125 15.375 4.90625 15.9375 5.09375 C 16.1875 5.15625 17.738281 5.734375 20.59375 6.828125 C 23.457031 7.929688 26.054688 8.484375 28.390625 8.484375 C 33.035156 8.484375 36.503906 7.554688 38.796875 5.703125 C 41.097656 3.847656 42.25 1.222656 42.25 -2.171875 L 42.25 -6.6875 C 40.863281 -4.738281 38.769531 -2.976562 35.96875 -1.40625 C 33.175781 0.15625 30.175781 0.9375 26.96875 0.9375 C 22.570312 0.9375 18.566406 -0.175781 14.953125 -2.40625 C 11.335938 -4.632812 8.488281 -7.726562 6.40625 -11.6875 C 4.332031 -15.65625 3.296875 -20.148438 3.296875 -25.171875 C 3.296875 -30.203125 4.316406 -34.710938 6.359375 -38.703125 C 8.410156 -42.703125 11.207031 -45.816406 14.75 -48.046875 C 18.300781 -50.273438 22.25 -51.390625 26.59375 -51.390625 C 29.800781 -51.390625 32.785156 -50.726562 35.546875 -49.40625 C 38.316406 -48.09375 40.550781 -46.492188 42.25 -44.609375 L 42.25 -45.640625 C 42.25 -47.273438 42.78125 -48.640625 43.84375 -49.734375 C 44.914062 -50.835938 46.269531 -51.390625 47.90625 -51.390625 Z M 28.390625 -9.4375 C 32.597656 -9.4375 36.035156 -10.925781 38.703125 -13.90625 C 41.378906 -16.894531 42.71875 -20.648438 42.71875 -25.171875 C 42.71875 -29.703125 41.378906 -33.472656 38.703125 -36.484375 C 36.035156 -39.503906 32.597656 -41.015625 28.390625 -41.015625 C 24.171875 -41.015625 20.738281 -39.503906 18.09375 -36.484375 C 15.457031 -33.472656 14.140625 -29.703125 14.140625 -25.171875 C 14.140625 -20.648438 15.457031 -16.894531 18.09375 -13.90625 C 20.738281 -10.925781 24.171875 -9.4375 28.390625 -9.4375 Z M 28.390625 -9.4375 "/></g></g></g></g></g></svg>