<svg xmlns="http://www.w3.org/2000/svg" xmlns:xlink="http://www.w3.org/1999/xlink" zoomAndPan="magnify" preserveAspectRatio="xMidYMid meet" version="1.0" viewBox="178.11 190.86 18.78 19.34"><defs><g/><clipPath id="1e44eca631"><rect x="0" width="37" y="0" height="177"/></clipPath></defs><g transform="matrix(1, 0, 0, 1, 169, 69)"><g clip-path="url(#1e44eca631)"><g fill="#f2778e" fill-opacity="1"><g transform="translate(0.92178, 141.348445)"><g><path d="M 16.65625 -0.140625 C 13.925781 -0.140625 11.832031 -0.867188 10.375 -2.328125 C 8.914062 -3.785156 8.1875 -5.878906 8.1875 -8.609375 L 8.1875 -11.015625 C 8.1875 -13.742188 8.914062 -15.835938 10.375 -17.296875 C 11.832031 -18.753906 13.925781 -19.484375 16.65625 -19.484375 L 18.5 -19.484375 C 21.226562 -19.484375 23.320312 -18.753906 24.78125 -17.296875 C 26.238281 -15.835938 26.96875 -13.742188 26.96875 -11.015625 L 26.96875 -8.609375 C 26.96875 -5.878906 26.238281 -3.785156 24.78125 -2.328125 C 23.320312 -0.867188 21.226562 -0.140625 18.5 -0.140625 Z M 16.65625 -0.140625 "/></g></g></g></g></g></svg>