<svg xmlns="http://www.w3.org/2000/svg" xmlns:xlink="http://www.w3.org/1999/xlink" zoomAndPan="magnify" preserveAspectRatio="xMidYMid meet" version="1.0" viewBox="5.64 153.98 361.32 86.66"><defs><g/><clipPath id="0f2b9d6366"><rect x="0" width="372" y="0" height="119"/></clipPath></defs><g transform="matrix(1, 0, 0, 1, 0, 127)"><g clip-path="url(#0f2b9d6366)">
<g fill="#f291a3" fill-opacity="1"><g transform="translate(-0.481298, 94.77235)"><g><path d="M 32.25 -51.390625 C 36.582031 -51.390625 40.507812 -50.273438 44.03125 -48.046875 C 47.550781 -45.816406 50.332031 -42.71875 52.375 -38.75 C 54.425781 -34.789062 55.453125 -30.296875 55.453125 -25.265625 C 55.453125 -20.242188 54.441406 -15.734375 52.421875 -11.734375 C 50.410156 -7.742188 47.660156 -4.632812 44.171875 -2.40625 C 40.679688 -0.175781 36.832031 0.9375 32.625 0.9375 C 29.601562 0.9375 26.753906 0.328125 24.078125 -0.890625 C 21.410156 -2.117188 19.195312 -3.613281 17.4375 -5.375 L 17.4375 13.109375 C 17.4375 14.742188 16.898438 16.109375 15.828125 17.203125 C 14.765625 18.304688 13.414062 18.859375 11.78125 18.859375 C 10.144531 18.859375 8.789062 18.320312 7.71875 17.25 C 6.65625 16.1875 6.125 14.804688 6.125 13.109375 L 6.125 -44.703125 C 6.125 -46.335938 6.65625 -47.703125 7.71875 -48.796875 C 8.789062 -49.898438 10.144531 -50.453125 11.78125 -50.453125 C 13.414062 -50.453125 14.765625 -49.898438 15.828125 -48.796875 C 16.898438 -47.703125 17.4375 -46.335938 17.4375 -44.703125 L 17.4375 -44.3125 C 18.945312 -46.207031 21.050781 -47.859375 23.75 -49.265625 C 26.457031 -50.679688 29.289062 -51.390625 32.25 -51.390625 Z M 30.828125 -9.4375 C 34.859375 -9.4375 38.160156 -10.941406 40.734375 -13.953125 C 43.316406 -16.972656 44.609375 -20.742188 44.609375 -25.265625 C 44.609375 -29.796875 43.332031 -33.550781 40.78125 -36.53125 C 38.238281 -39.519531 34.921875 -41.015625 30.828125 -41.015625 C 26.742188 -41.015625 23.410156 -39.519531 20.828125 -36.53125 C 18.253906 -33.550781 16.96875 -29.796875 16.96875 -25.265625 C 16.96875 -20.742188 18.253906 -16.972656 20.828125 -13.953125 C 23.410156 -10.941406 26.742188 -9.4375 30.828125 -9.4375 Z M 30.828125 -9.4375 "/></g></g></g>
<g fill="#f291a3" fill-opacity="1"><g transform="translate(58.259316, 94.77235)"><g><path d="M 32.34375 -51.390625 C 34.226562 -51.390625 35.8125 -50.851562 37.09375 -49.78125 C 38.382812 -48.71875 39.03125 -47.460938 39.03125 -46.015625 C 39.03125 -44.066406 38.523438 -42.601562 37.515625 -41.625 C 36.515625 -40.65625 35.328125 -40.171875 33.953125 -40.171875 C 33.003906 -40.171875 31.929688 -40.390625 30.734375 -40.828125 C 30.546875 -40.890625 30.125 -41.015625 29.46875 -41.203125 C 28.8125 -41.390625 28.101562 -41.484375 27.34375 -41.484375 C 25.707031 -41.484375 24.132812 -40.976562 22.625 -39.96875 C 21.125 -38.96875 19.882812 -37.445312 18.90625 -35.40625 C 17.925781 -33.363281 17.4375 -30.925781 17.4375 -28.09375 L 17.4375 -5.75 C 17.4375 -4.113281 16.898438 -2.742188 15.828125 -1.640625 C 14.765625 -0.546875 13.414062 0 11.78125 0 C 10.144531 0 8.789062 -0.546875 7.71875 -1.640625 C 6.65625 -2.742188 6.125 -4.113281 6.125 -5.75 L 6.125 -44.703125 C 6.125 -46.335938 6.65625 -47.703125 7.71875 -48.796875 C 8.789062 -49.898438 10.144531 -50.453125 11.78125 -50.453125 C 13.414062 -50.453125 14.765625 -49.898438 15.828125 -48.796875 C 16.898438 -47.703125 17.4375 -46.335938 17.4375 -44.703125 L 17.4375 -43.46875 C 18.882812 -46.050781 20.957031 -48.015625 23.65625 -49.359375 C 26.363281 -50.710938 29.257812 -51.390625 32.34375 -51.390625 Z M 32.34375 -51.390625 "/></g></g></g>
<g fill="#f291a3" fill-opacity="1"><g transform="translate(99.17974, 94.77235)"><g><path d="M 54.59375 -25.171875 C 54.59375 -20.148438 53.460938 -15.640625 51.203125 -11.640625 C 48.941406 -7.648438 45.84375 -4.554688 41.90625 -2.359375 C 37.976562 -0.160156 33.660156 0.9375 28.953125 0.9375 C 24.171875 0.9375 19.832031 -0.160156 15.9375 -2.359375 C 12.039062 -4.554688 8.957031 -7.648438 6.6875 -11.640625 C 4.425781 -15.640625 3.296875 -20.148438 3.296875 -25.171875 C 3.296875 -30.203125 4.425781 -34.710938 6.6875 -38.703125 C 8.957031 -42.703125 12.039062 -45.816406 15.9375 -48.046875 C 19.832031 -50.273438 24.171875 -51.390625 28.953125 -51.390625 C 33.660156 -51.390625 37.976562 -50.273438 41.90625 -48.046875 C 45.84375 -45.816406 48.941406 -42.703125 51.203125 -38.703125 C 53.460938 -34.710938 54.59375 -30.203125 54.59375 -25.171875 Z M 43.28125 -25.171875 C 43.28125 -28.253906 42.632812 -31.003906 41.34375 -33.421875 C 40.0625 -35.847656 38.332031 -37.71875 36.15625 -39.03125 C 33.988281 -40.351562 31.585938 -41.015625 28.953125 -41.015625 C 26.304688 -41.015625 23.898438 -40.351562 21.734375 -39.03125 C 19.566406 -37.71875 17.835938 -35.847656 16.546875 -33.421875 C 15.253906 -31.003906 14.609375 -28.253906 14.609375 -25.171875 C 14.609375 -22.097656 15.253906 -19.363281 16.546875 -16.96875 C 17.835938 -14.582031 19.566406 -12.726562 21.734375 -11.40625 C 23.898438 -10.09375 26.304688 -9.4375 28.953125 -9.4375 C 31.585938 -9.4375 33.988281 -10.09375 36.15625 -11.40625 C 38.332031 -12.726562 40.0625 -14.582031 41.34375 -16.96875 C 42.632812 -19.363281 43.28125 -22.097656 43.28125 -25.171875 Z M 43.28125 -25.171875 "/></g></g></g>
<g fill="#f291a3" fill-opacity="1"><g transform="translate(157.071772, 94.77235)"><g><path d="M 3.390625 18.484375 C 1.878906 18.484375 0.625 17.976562 -0.375 16.96875 C -1.382812 15.96875 -1.890625 14.710938 -1.890625 13.203125 L -1.890625 12.171875 C -1.890625 9.648438 -0.285156 7.921875 2.921875 6.984375 C 4.929688 6.347656 6.203125 5.289062 6.734375 3.8125 C 7.273438 2.34375 7.546875 0.285156 7.546875 -2.359375 L 7.546875 -44.703125 C 7.546875 -46.335938 8.078125 -47.703125 9.140625 -48.796875 C 10.210938 -49.898438 11.566406 -50.453125 13.203125 -50.453125 C 14.835938 -50.453125 16.1875 -49.898438 17.25 -48.796875 C 18.320312 -47.703125 18.859375 -46.335938 18.859375 -44.703125 L 18.859375 0.9375 C 18.859375 4.457031 18.179688 7.535156 16.828125 10.171875 C 15.472656 12.816406 13.617188 14.863281 11.265625 16.3125 C 8.910156 17.757812 6.285156 18.484375 3.390625 18.484375 Z M 13.015625 -56.578125 C 10.878906 -56.578125 9.367188 -56.921875 8.484375 -57.609375 C 7.609375 -58.304688 7.171875 -59.535156 7.171875 -61.296875 L 7.171875 -63.078125 C 7.171875 -64.835938 7.640625 -66.0625 8.578125 -66.75 C 9.523438 -67.445312 11.035156 -67.796875 13.109375 -67.796875 C 15.304688 -67.796875 16.84375 -67.445312 17.71875 -66.75 C 18.601562 -66.0625 19.046875 -64.835938 19.046875 -63.078125 L 19.046875 -61.296875 C 19.046875 -59.472656 18.585938 -58.226562 17.671875 -57.5625 C 16.765625 -56.90625 15.210938 -56.578125 13.015625 -56.578125 Z M 13.015625 -56.578125 "/></g></g></g>
<g fill="#f291a3" fill-opacity="1"><g transform="translate(183.000605, 94.77235)"><g><path d="M 51.390625 -26.40625 C 51.328125 -24.894531 50.726562 -23.664062 49.59375 -22.71875 C 48.46875 -21.78125 47.148438 -21.3125 45.640625 -21.3125 L 14.515625 -21.3125 C 15.273438 -17.601562 17.003906 -14.695312 19.703125 -12.59375 C 22.410156 -10.488281 25.460938 -9.4375 28.859375 -9.4375 C 31.429688 -9.4375 33.441406 -9.671875 34.890625 -10.140625 C 36.335938 -10.609375 37.484375 -11.109375 38.328125 -11.640625 C 39.179688 -12.179688 39.765625 -12.546875 40.078125 -12.734375 C 41.210938 -13.296875 42.28125 -13.578125 43.28125 -13.578125 C 44.601562 -13.578125 45.734375 -13.101562 46.671875 -12.15625 C 47.617188 -11.21875 48.09375 -10.117188 48.09375 -8.859375 C 48.09375 -7.160156 47.210938 -5.625 45.453125 -4.25 C 43.691406 -2.800781 41.332031 -1.570312 38.375 -0.5625 C 35.425781 0.4375 32.441406 0.9375 29.421875 0.9375 C 24.140625 0.9375 19.535156 -0.160156 15.609375 -2.359375 C 11.679688 -4.554688 8.644531 -7.585938 6.5 -11.453125 C 4.363281 -15.316406 3.296875 -19.671875 3.296875 -24.515625 C 3.296875 -29.921875 4.425781 -34.664062 6.6875 -38.75 C 8.957031 -42.84375 11.945312 -45.972656 15.65625 -48.140625 C 19.363281 -50.304688 23.320312 -51.390625 27.53125 -51.390625 C 31.6875 -51.390625 35.601562 -50.257812 39.28125 -48 C 42.957031 -45.738281 45.894531 -42.6875 48.09375 -38.84375 C 50.289062 -35.007812 51.390625 -30.863281 51.390625 -26.40625 Z M 27.53125 -41.015625 C 20.238281 -41.015625 15.929688 -37.585938 14.609375 -30.734375 L 39.328125 -30.734375 L 39.328125 -31.40625 C 39.066406 -34.039062 37.773438 -36.300781 35.453125 -38.1875 C 33.128906 -40.070312 30.488281 -41.015625 27.53125 -41.015625 Z M 27.53125 -41.015625 "/></g></g></g>
<g fill="#f291a3" fill-opacity="1"><g transform="translate(237.686887, 94.77235)"><g><path d="M 28.09375 -51.390625 C 33.4375 -51.390625 37.742188 -50.554688 41.015625 -48.890625 C 44.285156 -47.222656 45.921875 -45.007812 45.921875 -42.25 C 45.921875 -40.863281 45.507812 -39.648438 44.6875 -38.609375 C 43.875 -37.578125 42.804688 -37.0625 41.484375 -37.0625 C 40.484375 -37.0625 39.664062 -37.203125 39.03125 -37.484375 C 38.40625 -37.765625 37.789062 -38.140625 37.1875 -38.609375 C 36.59375 -39.085938 36.015625 -39.484375 35.453125 -39.796875 C 34.828125 -40.109375 33.898438 -40.390625 32.671875 -40.640625 C 31.441406 -40.890625 30.453125 -41.015625 29.703125 -41.015625 C 24.984375 -41.015625 21.285156 -39.550781 18.609375 -36.625 C 15.941406 -33.707031 14.609375 -29.890625 14.609375 -25.171875 C 14.609375 -20.648438 15.957031 -16.894531 18.65625 -13.90625 C 21.363281 -10.925781 24.828125 -9.4375 29.046875 -9.4375 C 32.117188 -9.4375 34.410156 -9.8125 35.921875 -10.5625 C 36.304688 -10.75 36.828125 -11.078125 37.484375 -11.546875 C 38.140625 -12.023438 38.75 -12.390625 39.3125 -12.640625 C 39.882812 -12.890625 40.578125 -13.015625 41.390625 -13.015625 C 42.960938 -13.015625 44.203125 -12.507812 45.109375 -11.5 C 46.023438 -10.5 46.484375 -9.210938 46.484375 -7.640625 C 46.484375 -6.128906 45.601562 -4.710938 43.84375 -3.390625 C 42.082031 -2.078125 39.753906 -1.023438 36.859375 -0.234375 C 33.972656 0.546875 30.894531 0.9375 27.625 0.9375 C 22.789062 0.9375 18.53125 -0.191406 14.84375 -2.453125 C 11.164062 -4.710938 8.320312 -7.835938 6.3125 -11.828125 C 4.300781 -15.828125 3.296875 -20.273438 3.296875 -25.171875 C 3.296875 -30.265625 4.347656 -34.789062 6.453125 -38.75 C 8.566406 -42.71875 11.507812 -45.816406 15.28125 -48.046875 C 19.050781 -50.273438 23.320312 -51.390625 28.09375 -51.390625 Z M 28.09375 -51.390625 "/></g></g></g>
<g fill="#f291a3" fill-opacity="1"><g transform="translate(286.244524, 94.77235)"><g><path d="M 30.453125 -10.65625 C 31.335938 -10.65625 32.140625 -10.226562 32.859375 -9.375 C 33.585938 -8.53125 33.953125 -7.414062 33.953125 -6.03125 C 33.953125 -4.332031 33.023438 -2.898438 31.171875 -1.734375 C 29.316406 -0.578125 27.222656 0 24.890625 0 C 20.992188 0 17.707031 -0.832031 15.03125 -2.5 C 12.363281 -4.164062 11.03125 -7.703125 11.03125 -13.109375 L 11.03125 -39.140625 L 6.6875 -39.140625 C 5.1875 -39.140625 3.929688 -39.640625 2.921875 -40.640625 C 1.921875 -41.648438 1.421875 -42.90625 1.421875 -44.40625 C 1.421875 -45.851562 1.921875 -47.0625 2.921875 -48.03125 C 3.929688 -49.007812 5.1875 -49.5 6.6875 -49.5 L 11.03125 -49.5 L 11.03125 -55.546875 C 11.03125 -57.179688 11.578125 -58.546875 12.671875 -59.640625 C 13.773438 -60.742188 15.144531 -61.296875 16.78125 -61.296875 C 18.351562 -61.296875 19.671875 -60.742188 20.734375 -59.640625 C 21.804688 -58.546875 22.34375 -57.179688 22.34375 -55.546875 L 22.34375 -49.5 L 29.046875 -49.5 C 30.554688 -49.5 31.8125 -48.992188 32.8125 -47.984375 C 33.820312 -46.984375 34.328125 -45.726562 34.328125 -44.21875 C 34.328125 -42.78125 33.820312 -41.570312 32.8125 -40.59375 C 31.8125 -39.625 30.554688 -39.140625 29.046875 -39.140625 L 22.34375 -39.140625 L 22.34375 -13.578125 C 22.34375 -12.253906 22.6875 -11.296875 23.375 -10.703125 C 24.070312 -10.109375 25.019531 -9.8125 26.21875 -9.8125 C 26.71875 -9.8125 27.410156 -9.9375 28.296875 -10.1875 C 29.046875 -10.5 29.765625 -10.65625 30.453125 -10.65625 Z M 30.453125 -10.65625 "/></g></g></g>
<g fill="#f291a3" fill-opacity="1"><g transform="translate(324.80778, 94.77235)"><g><path d="M 3.203125 -7.828125 C 2.640625 -8.578125 2.359375 -9.519531 2.359375 -10.65625 C 2.359375 -12.289062 3.175781 -13.671875 4.8125 -14.796875 C 5.6875 -15.367188 6.597656 -15.65625 7.546875 -15.65625 C 8.867188 -15.65625 10.125 -15.054688 11.3125 -13.859375 C 13.195312 -11.910156 15.160156 -10.460938 17.203125 -9.515625 C 19.253906 -8.578125 21.722656 -8.109375 24.609375 -8.109375 C 29.515625 -8.296875 31.96875 -10.148438 31.96875 -13.671875 C 31.96875 -15.492188 31.132812 -16.875 29.46875 -17.8125 C 27.800781 -18.757812 25.207031 -19.707031 21.6875 -20.65625 C 18.039062 -21.65625 15.066406 -22.65625 12.765625 -23.65625 C 10.472656 -24.664062 8.492188 -26.191406 6.828125 -28.234375 C 5.171875 -30.285156 4.34375 -33.039062 4.34375 -36.5 C 4.34375 -39.507812 5.207031 -42.128906 6.9375 -44.359375 C 8.664062 -46.597656 10.925781 -48.328125 13.71875 -49.546875 C 16.519531 -50.773438 19.488281 -51.390625 22.625 -51.390625 C 25.832031 -51.390625 29.039062 -50.789062 32.25 -49.59375 C 35.457031 -48.40625 37.972656 -46.644531 39.796875 -44.3125 C 40.609375 -43.3125 41.015625 -42.179688 41.015625 -40.921875 C 41.015625 -39.472656 40.421875 -38.28125 39.234375 -37.34375 C 38.347656 -36.644531 37.335938 -36.296875 36.203125 -36.296875 C 34.828125 -36.296875 33.695312 -36.738281 32.8125 -37.625 C 31.6875 -39.007812 30.226562 -40.109375 28.4375 -40.921875 C 26.644531 -41.742188 24.613281 -42.15625 22.34375 -42.15625 C 17.570312 -42.15625 15.1875 -40.425781 15.1875 -36.96875 C 15.1875 -35.582031 15.625 -34.460938 16.5 -33.609375 C 17.382812 -32.765625 18.5 -32.101562 19.84375 -31.625 C 21.195312 -31.15625 23.097656 -30.578125 25.546875 -29.890625 C 28.941406 -28.953125 31.769531 -27.976562 34.03125 -26.96875 C 36.300781 -25.957031 38.222656 -24.414062 39.796875 -22.34375 C 41.367188 -20.269531 42.15625 -17.535156 42.15625 -14.140625 C 42.15625 -11.066406 41.242188 -8.378906 39.421875 -6.078125 C 37.597656 -3.785156 35.253906 -2.039062 32.390625 -0.84375 C 29.523438 0.34375 26.585938 0.9375 23.578125 0.9375 C 19.421875 0.9375 15.550781 0.25 11.96875 -1.125 C 8.382812 -2.507812 5.460938 -4.742188 3.203125 -7.828125 Z M 3.203125 -7.828125 "/></g></g></g></g></g></svg>