<svg xmlns="http://www.w3.org/2000/svg" xmlns:xlink="http://www.w3.org/1999/xlink" width="810" zoomAndPan="magnify" viewBox="0 0 607.5 607.499986" height="810" preserveAspectRatio="xMidYMid meet" version="1.0"><defs><g/><clipPath id="5346c63cf8"><path d="M 429.523438 157.542969 L 539.242188 157.542969 L 539.242188 328 L 429.523438 328 Z M 429.523438 157.542969 " clip-rule="nonzero"/></clipPath><clipPath id="05ac66bdde"><path d="M 531.890625 258 L 448.390625 325.359375 C 444.933594 328.144531 440.183594 328.703125 436.175781 326.785156 C 432.171875 324.871094 429.621094 320.824219 429.621094 316.382812 L 429.621094 169.339844 C 429.621094 164.898438 432.171875 160.851562 436.175781 158.9375 C 440.183594 157.023438 444.933594 157.578125 448.390625 160.363281 L 531.890625 227.722656 C 536.46875 231.414062 539.132812 236.980469 539.132812 242.859375 C 539.132812 248.742188 536.46875 254.308594 531.890625 258 Z M 531.890625 258 " clip-rule="nonzero"/></clipPath><clipPath id="56618d50e0"><path d="M 531.890625 258 L 448.390625 325.359375 C 444.933594 328.144531 440.183594 328.703125 436.175781 326.785156 C 432.171875 324.871094 429.621094 320.824219 429.621094 316.382812 L 429.621094 169.339844 C 429.621094 164.898438 432.171875 160.851562 436.175781 158.9375 C 440.183594 157.023438 444.933594 157.578125 448.390625 160.363281 L 531.890625 227.722656 C 536.46875 231.414062 539.132812 236.980469 539.132812 242.859375 C 539.132812 248.742188 536.46875 254.308594 531.890625 258 Z M 531.890625 258 " clip-rule="nonzero"/></clipPath><clipPath id="76db649c2f"><path d="M 72 15.882812 L 451.640625 15.882812 L 451.640625 473.339844 L 72 473.339844 Z M 72 15.882812 " clip-rule="nonzero"/></clipPath></defs><g clip-path="url(#5346c63cf8)"><g clip-path="url(#05ac66bdde)"><g clip-path="url(#56618d50e0)"><path fill="#2b7cce" d="M 429.402344 145.226562 L 550.660156 145.226562 L 550.660156 340.371094 L 429.402344 340.371094 Z M 429.402344 145.226562 " fill-opacity="1" fill-rule="nonzero"/></g></g></g><g clip-path="url(#76db649c2f)"><path fill="#2b7cce" d="M 89.714844 406.214844 C 104.726562 431.953125 127.605469 451.253906 156.914062 462.691406 C 175.144531 469.839844 194.445312 473.414062 214.820312 473.414062 C 223.042969 473.414062 231.621094 472.699219 240.199219 471.625 C 273.085938 467.339844 302.753906 454.46875 328.847656 433.378906 C 329.207031 433.023438 329.917969 432.664062 330.277344 432.308594 C 330.277344 432.308594 346.363281 450.894531 352.4375 458.402344 C 354.941406 461.621094 358.15625 463.050781 362.089844 463.050781 C 378.890625 463.050781 432.863281 463.050781 432.863281 463.050781 C 442.15625 463.050781 445.730469 458.046875 446.449219 455.902344 C 447.519531 453.753906 448.949219 447.679688 442.875 440.527344 L 381.035156 369.753906 C 388.183594 356.886719 393.546875 342.945312 397.476562 326.503906 C 400.695312 313.636719 402.484375 300.050781 403.910156 282.894531 L 430.007812 282.894531 C 441.800781 282.894531 451.453125 273.242188 451.453125 261.449219 L 451.453125 231.421875 C 451.453125 219.628906 441.800781 209.972656 430.007812 209.972656 L 352.796875 209.972656 C 341 209.972656 331.351562 219.628906 331.351562 231.421875 C 331.351562 240.714844 330.632812 252.511719 330.632812 259.660156 C 330.632812 280.394531 324.914062 306.128906 324.558594 307.199219 L 267.011719 242.503906 C 280.234375 234.28125 295.960938 223.203125 309.1875 208.546875 C 334.925781 180.304688 344.929688 146.351562 338.5 107.386719 C 333.136719 72.355469 313.476562 46.265625 280.234375 29.820312 C 251.28125 15.523438 219.109375 12.304688 185.507812 20.171875 C 159.417969 26.601562 138.328125 40.546875 122.957031 60.917969 C 111.160156 76.289062 104.371094 94.875 101.867188 115.609375 C 99.722656 137.054688 102.226562 156.359375 109.730469 173.875 C 115.09375 186.023438 122.601562 197.824219 134.394531 212.121094 C 136.898438 214.980469 139.042969 217.839844 141.542969 220.339844 C 137.613281 223.203125 133.324219 226.417969 129.03125 229.277344 C 109.730469 244.289062 95.433594 260.734375 86.140625 279.320312 C 75.414062 300.050781 70.769531 323.285156 72.554688 348.308594 C 73.984375 369.398438 79.703125 389.054688 89.714844 406.214844 Z M 174.785156 123.472656 C 176.574219 107.746094 183.722656 96.304688 197.664062 89.515625 C 212.675781 82.367188 228.046875 82.367188 242.703125 89.515625 C 258.429688 97.023438 265.578125 113.464844 265.578125 130.621094 C 265.578125 149.566406 257.355469 164.21875 242.703125 174.945312 C 233.765625 181.378906 223.757812 186.742188 214.464844 192.816406 C 214.105469 193.175781 212.675781 192.816406 212.320312 192.460938 C 201.953125 181.738281 191.226562 171.371094 183.367188 158.144531 C 176.929688 147.777344 173.355469 136.339844 174.785156 123.472656 Z M 167.28125 287.183594 C 175.859375 280.394531 184.796875 274.316406 194.089844 267.882812 C 225.542969 303.984375 256.640625 339.371094 287.742188 375.117188 C 283.808594 379.761719 279.519531 383.695312 274.515625 386.914062 C 263.792969 394.0625 251.636719 397.992188 239.128906 400.136719 C 224.113281 402.28125 209.457031 402.28125 194.804688 398.351562 C 178.359375 393.703125 164.421875 384.769531 155.128906 369.753906 C 141.542969 347.953125 139.757812 309.347656 167.28125 287.183594 Z M 167.28125 287.183594 " fill-opacity="1" fill-rule="nonzero"/></g><g fill="#2b7cce" fill-opacity="1"><g transform="translate(29.831897, 576.573736)"><g><path d="M 55.140625 -71.265625 L 74.4375 -71.265625 L 74.4375 0 L 55.140625 0 L 55.140625 -8 C 51.191406 -2.851562 45.21875 -0.28125 37.21875 -0.28125 C 27.476562 -0.1875 19.113281 -3.585938 12.125 -10.484375 C 5.144531 -17.367188 1.609375 -25.726562 1.515625 -35.5625 C 1.421875 -45.3125 4.820312 -53.675781 11.71875 -60.65625 C 18.613281 -67.644531 26.976562 -71.179688 36.8125 -71.265625 C 44.894531 -71.265625 51.003906 -68.648438 55.140625 -63.421875 Z M 49.359375 -23.4375 C 52.753906 -26.832031 54.453125 -30.96875 54.453125 -35.84375 C 54.453125 -40.800781 52.707031 -44.9375 49.21875 -48.25 C 45.726562 -51.738281 41.640625 -53.394531 36.953125 -53.21875 C 32.078125 -53.21875 27.9375 -51.515625 24.53125 -48.109375 C 21.132812 -44.710938 19.4375 -40.578125 19.4375 -35.703125 C 19.4375 -30.921875 21.179688 -26.785156 24.671875 -23.296875 C 28.078125 -19.898438 32.210938 -18.203125 37.078125 -18.203125 C 42.046875 -18.378906 46.140625 -20.125 49.359375 -23.4375 Z M 49.359375 -23.4375 "/></g></g></g><g fill="#2b7cce" fill-opacity="1"><g transform="translate(108.413875, 576.573736)"><g><path d="M 39.421875 -70.71875 C 49.535156 -71.550781 57.898438 -68.929688 64.515625 -62.859375 C 71.597656 -56.335938 75.140625 -47.195312 75.140625 -35.4375 L 75.140625 0 L 57.21875 0 L 57.21875 -35.015625 L 57.078125 -35.015625 L 57.078125 -35.296875 C 57.078125 -40.160156 55.375 -44.296875 51.96875 -47.703125 C 48.570312 -51.097656 44.4375 -52.796875 39.5625 -52.796875 C 34.601562 -52.617188 30.46875 -50.875 27.15625 -47.5625 C 23.664062 -44.070312 22.015625 -39.9375 22.203125 -35.15625 L 22.203125 -35.015625 L 22.0625 -35.015625 L 22.0625 0 L 2.75 0 L 2.75 -71.265625 L 22.0625 -71.265625 L 22.0625 -62.03125 C 26.375 -67.175781 32.160156 -70.070312 39.421875 -70.71875 Z M 39.421875 -70.71875 "/></g></g></g><g fill="#2b7cce" fill-opacity="1"><g transform="translate(186.306537, 576.573736)"><g><path d="M 59.6875 0 L 59.6875 -8.140625 C 53.070312 -2.710938 45.582031 0 37.21875 0 C 27.476562 0.09375 19.113281 -3.304688 12.125 -10.203125 C 5.144531 -17.097656 1.609375 -25.460938 1.515625 -35.296875 C 1.421875 -45.035156 4.820312 -53.394531 11.71875 -60.375 C 18.613281 -67.363281 26.976562 -70.90625 36.8125 -71 C 45.351562 -71 52.9375 -68.285156 59.5625 -62.859375 L 59.5625 -96.21875 L 78.859375 -96.21875 L 79 0 Z M 49.484375 -23.15625 C 52.890625 -26.5625 54.59375 -30.695312 54.59375 -35.5625 C 54.40625 -40.53125 52.660156 -44.664062 49.359375 -47.96875 C 45.859375 -51.28125 41.722656 -52.9375 36.953125 -52.9375 C 32.078125 -52.9375 27.9375 -51.238281 24.53125 -47.84375 C 21.132812 -44.070312 19.484375 -39.9375 19.578125 -35.4375 C 19.578125 -30.5625 21.273438 -26.421875 24.671875 -23.015625 C 28.078125 -19.617188 32.210938 -17.921875 37.078125 -17.921875 C 42.046875 -18.109375 46.179688 -19.851562 49.484375 -23.15625 Z M 49.484375 -23.15625 "/></g></g></g><g fill="#2b7cce" fill-opacity="1"><g transform="translate(269.437997, 576.573736)"><g><path d="M 72.234375 -68.109375 L 48.9375 -68.109375 L 48.9375 0 L 27.4375 0 L 27.4375 -68.109375 L 4.140625 -68.109375 L 4.140625 -89.609375 L 72.234375 -89.609375 Z M 72.234375 -68.109375 "/></g></g></g><g fill="#2b7cce" fill-opacity="1"><g transform="translate(344.57338, 576.573736)"><g><path d="M 76.515625 0 L 58.59375 0 L 58.59375 -35.015625 L 58.453125 -35.015625 L 58.453125 -35.4375 C 58.453125 -40.207031 56.753906 -44.296875 53.359375 -47.703125 C 49.953125 -51.097656 45.8125 -52.796875 40.9375 -52.796875 C 36.164062 -52.796875 32.03125 -51.050781 28.53125 -47.5625 C 25.039062 -44.070312 23.390625 -39.9375 23.578125 -35.15625 L 23.578125 -35.015625 L 23.4375 -35.015625 L 23.4375 0 L 4.140625 0 L 4.140625 -89.609375 L 23.4375 -89.609375 L 23.4375 -62.03125 C 27.757812 -67.175781 33.550781 -70.070312 40.8125 -70.71875 C 50.914062 -71.550781 59.273438 -68.929688 65.890625 -62.859375 C 72.972656 -56.335938 76.515625 -47.195312 76.515625 -35.4375 Z M 76.515625 0 "/></g></g></g><g fill="#2b7cce" fill-opacity="1"><g transform="translate(425.22332, 576.573736)"><g><path d="M 72.515625 -32.390625 C 72.609375 -30.460938 72.609375 -29.316406 72.515625 -28.953125 L 20.671875 -29.09375 C 21.410156 -26.976562 22.742188 -24.953125 24.671875 -23.015625 C 28.253906 -19.617188 32.390625 -17.921875 37.078125 -17.921875 C 42.046875 -18.109375 46.179688 -19.851562 49.484375 -23.15625 L 50.046875 -23.71875 L 67.96875 -18.0625 C 64.007812 -11.90625 59.875 -7.492188 55.5625 -4.828125 C 50.6875 -1.703125 44.570312 -0.09375 37.21875 0 C 27.476562 0.09375 19.113281 -3.304688 12.125 -10.203125 C 5.144531 -17.097656 1.609375 -25.460938 1.515625 -35.296875 C 1.421875 -45.035156 4.820312 -53.394531 11.71875 -60.375 C 18.613281 -67.363281 26.976562 -70.90625 36.8125 -71 C 46.550781 -71.09375 54.914062 -67.691406 61.90625 -60.796875 C 68.882812 -53.898438 72.421875 -45.535156 72.515625 -35.703125 Z M 36.953125 -52.9375 C 32.078125 -52.9375 27.9375 -51.238281 24.53125 -47.84375 C 22.789062 -45.90625 21.550781 -43.972656 20.8125 -42.046875 L 53.21875 -42.046875 C 52.476562 -43.972656 51.191406 -45.945312 49.359375 -47.96875 C 45.859375 -51.28125 41.722656 -52.9375 36.953125 -52.9375 Z M 36.953125 -52.9375 "/></g></g></g><g fill="#2b7cce" fill-opacity="1"><g transform="translate(499.255783, 576.573736)"><g><path d="M 39.421875 -70.71875 C 49.535156 -71.550781 57.898438 -68.929688 64.515625 -62.859375 C 71.597656 -56.335938 75.140625 -47.195312 75.140625 -35.4375 L 75.140625 0 L 57.21875 0 L 57.21875 -35.015625 L 57.078125 -35.015625 L 57.078125 -35.296875 C 57.078125 -40.160156 55.375 -44.296875 51.96875 -47.703125 C 48.570312 -51.097656 44.4375 -52.796875 39.5625 -52.796875 C 34.601562 -52.617188 30.46875 -50.875 27.15625 -47.5625 C 23.664062 -44.070312 22.015625 -39.9375 22.203125 -35.15625 L 22.203125 -35.015625 L 22.0625 -35.015625 L 22.0625 0 L 2.75 0 L 2.75 -71.265625 L 22.0625 -71.265625 L 22.0625 -62.03125 C 26.375 -67.175781 32.160156 -70.070312 39.421875 -70.71875 Z M 39.421875 -70.71875 "/></g></g></g></svg>